<svg width="670" height="400" viewBox="0 0 670 400" fill="none" xmlns="http://www.w3.org/2000/svg">

  <!-- GROUP: Conveyor Body -->
  <g id="conveyor-body">
    <path d="M520.266 266H72L156.593 216H593L520.266 266Z" fill="black" stroke="black"/>
    <path d="M520.405 225H73L157.431 176H593L520.405 225Z" fill="black"/>
    <path d="M592.744 176C615.428 187.757 600.566 212.838 595.873 215.973L533.489 262.277C533.153 262.55 532.827 262.792 532.515 263L533.489 262.277C540.722 256.4 552.293 236.165 520 225.378L592.744 176Z" fill="black"/>
    <path d="M70.0692 266C45.1492 264.183 44.1553 240.935 57.6083 230.296L57.4247 229.77L135.941 188.16C139.897 181.821 147.224 177 157 177L153.694 217.956L70.0692 266Z" fill="black"/>
    <path d="M70.0692 266C37.6677 263.637 45.715 225.044 73.3749 225.044M70.0692 266L73.3749 225.044M70.0692 266L57.4247 229.77M70.0692 266L153.694 217.956M73.3749 225.044L157 177M73.3749 225.044L57.4247 229.77M153.694 217.956C121.293 215.593 129.34 177 157 177M153.694 217.956L157 177M157 177L57.4247 229.77" stroke="black"/>
    <rect x="72" y="229" width="451" height="35" fill="#404040"/>
  </g>

  <!-- GROUP: Left Wheel -->
  <g id="left-wheel">
    <circle cx="66.2222" cy="246.778" r="19.7222" fill="#D9D9D9" stroke="black"/>
    <line x1="65.7222" y1="248.222" x2="65.7222" y2="228" stroke="black"/>
  </g>

  <!-- GROUP: Right Wheel -->
  <g id="right-wheel">
    <circle cx="522.667" cy="246.778" r="19.7222" fill="#D9D9D9" stroke="black"/>
    <line x1="522.167" y1="246.778" x2="522.167" y2="228" stroke="black"/>
  </g>

  <!-- GROUP: Sensor -->
  <g id="sensor">
    <rect x="105" y="238" width="19" height="19" rx="4" fill="#FB0000"/>
  </g>

</svg>
