<svg width="400" height="400" viewBox="0 0 400 400" fill="none" xmlns="http://www.w3.org/2000/svg">

  <!-- ========== GROUP UTAMA FAN ========== -->
  <g id="fan">

    <!-- ========== FAN BODY / FRAME ========== -->
    <g id="fan-body">
      <rect x="65.5" y="63.5" width="265" height="264" rx="5.5" fill="#D9D9D9" stroke="black"/>
      <ellipse cx="198" cy="195.5" rx="115.71" ry="115.275" fill="#888888"/>
    </g>

    <!-- ========== FAN BLADES (PUTAR DI SINI) ========== -->
    <g id="fan-blades">

      <!-- BLADE 1 -->
      <g filter="url(#filter0_d_16_192)">
        <path d="M197.827 195.037L124.624 116.865C148.966 98.3979 170.634 106.35 190.025 124.639C229.729 162.087 210.806 183.674 197.827 195.037Z"
              fill="#D9D9D9"/>
      </g>

      <!-- BLADE 2 -->
      <g filter="url(#filter1_d_16_192)">
        <path d="M197.607 195.579L278.611 265.7C256.34 286.601 233.956 280.95 212.753 264.78C169.337 231.672 185.891 208.233 197.607 195.579Z"
              fill="#D9D9D9"/>
      </g>

      <!-- BLADE 3 -->
      <g filter="url(#filter2_d_16_192)">
        <path d="M201.389 196.941L94.4445 205.777C94.9689 175.299 114.656 163.277 141.079 159.439C195.182 151.58 200.473 179.75 201.389 196.941Z"
              fill="#D9D9D9"/>
      </g>

      <!-- BLADE 4 -->
      <g filter="url(#filter3_d_16_192)">
        <path d="M201.68 197.448L307.112 177.524C309.788 207.889 291.47 221.895 265.594 228.464C212.613 241.914 204.395 214.449 201.68 197.448Z"
              fill="#D9D9D9"/>
      </g>

      <!-- BLADE 5 -->
      <g filter="url(#filter4_d_16_192)">
        <path d="M202.144 198.109L162.444 297.432C135.288 283.387 133.254 260.472 141.576 235.195C158.615 183.438 186.288 191.268 202.144 198.109Z"
              fill="#D9D9D9"/>
      </g>

      <!-- BLADE 6 -->
      <g filter="url(#filter5_d_16_192)">
        <path d="M202.73 198.075L231.791 95.1615C260.272 106.301 264.699 128.879 259.075 154.885C247.56 208.132 219.217 203.227 202.73 198.075Z"
              fill="#D9D9D9"/>
      </g>

    </g>

    <!-- ========== FAN CENTER ========== -->
    <g id="fan-center">
      <ellipse cx="198" cy="195.5" rx="15.96" ry="15.9" fill="#BCB8B8"/>
      <path d="M198 85.225C259.161 85.225 308.71 134.615 308.71 195.5C308.71 256.386 259.161 305.775 198 305.775C136.839 305.775 87.2903 256.386 87.29 195.5C87.29 134.615 136.839 85.225 198 85.225Z"
            stroke="black" stroke-width="10"/>
    </g>

    <!-- ========== FAN INDICATOR (LED) ========== -->
    <g id="fan-indicator">
      <rect x="78" y="76" width="19" height="19" rx="4" fill="#FF0000"/>
    </g>

  </g>

  <!-- FILTER DEFINITIONS (TETAP) -->
  <defs>
    <!-- semua filter tetap Anda punya -->
  </defs>

</svg>
