<svg width="400" height="400" viewBox="0 0 400 400" fill="none" xmlns="http://www.w3.org/2000/svg">

  <!-- ===== GROUP UTAMA MOTOR MIXER ===== -->
  <g id="motor-mixer">

    <!-- BODY MOTOR -->
    <g id="motor-body">
      <rect x="30.5" y="132.5" width="205.7" height="116" fill="#D9D9D9" stroke="black"/>
      <rect x="30.5" y="132.5" width="46" height="116" fill="#D9D9D9" stroke="black"/>
      <rect x="76.5" y="132.5" width="160" height="91" fill="#D9D9D9" stroke="black"/>
      
      <!-- Horizontal detail lines -->
      <rect x="85.1" y="140.3" width="127.7" height="4.85" fill="#888888" stroke="black"/>
      <rect x="85.1" y="150.05" width="127.7" height="4.85" fill="#888888" stroke="black"/>
      <rect x="85.1" y="159.8" width="127.7" height="4.85" fill="#888888" stroke="black"/>
      <rect x="85.1" y="169.55" width="127.7" height="4.85" fill="#888888" stroke="black"/>
      <rect x="85.1" y="179.3" width="127.7" height="4.85" fill="#888888" stroke="black"/>
      <rect x="85.1" y="189.05" width="127.7" height="4.85" fill="#888888" stroke="black"/>
    </g>

    <!-- SHAFT / PULLEY -->
    <g id="motor-shaft">
      <rect x="235.25" y="157.85" width="8.75" height="34.1" fill="#D9D9D9" stroke="black"/>
      <rect x="245" y="173" width="62" height="6" fill="black"/>
    </g>

    <!-- ROTOR -->
    <g id="motor-rotor">
      <circle cx="218.175" cy="209.025" r="12.175" fill="#898686" stroke="black"/>
      <line x1="217.7" y1="198.3" x2="217.7" y2="211.95" stroke="black"/>
    </g>

    <!-- INDICATOR MOTOR -->
    <g id="motor-indicator">
      <rect x="40" y="140" width="29" height="29" rx="4" fill="#FF0000"/>
    </g>

    <!-- MIXER / GEAR -->
    <g id="motor-mixer-gear">
      <path d="M307 136.5C307.398 136.5 307.927 136.845 308.513 137.86C309.077 138.839 309.602 140.289 310.05 142.123C310.943 145.784 311.5 150.867 311.5 156.5C311.5 162.133 310.943 167.216 310.05 170.877C309.602 172.711 309.077 174.161 308.513 175.14C307.927 176.155 307.398 176.5 307 176.5C306.602 176.5 306.073 176.155 305.487 175.14C304.923 174.161 304.398 172.711 303.95 170.877C303.057 167.216 302.5 162.133 302.5 156.5C302.5 150.867 303.057 145.784 303.95 142.123C304.398 140.289 304.923 138.839 305.487 137.86C306.073 136.845 306.602 136.5 307 136.5Z" fill="#D9D9D9" stroke="black"/>
      <path d="M307 175.5C307.398 175.5 307.927 175.845 308.513 176.86C309.077 177.839 309.602 179.289 310.05 181.123C310.943 184.784 311.5 189.867 311.5 195.5C311.5 201.133 310.943 206.216 310.05 209.877C309.602 211.711 309.077 213.161 308.513 214.14C307.927 215.155 307.398 215.5 307 215.5C306.602 215.5 306.073 215.155 305.487 214.14C304.923 213.161 304.398 211.711 303.95 209.877C303.057 206.216 302.5 201.133 302.5 195.5C302.5 189.867 303.057 184.784 303.95 181.123C304.398 179.289 304.923 177.839 305.487 176.86C306.073 175.845 306.602 175.5 307 175.5Z" fill="#D9D9D9" stroke="black"/>
      <circle cx="307" cy="176" r="3.5" fill="#D9D9D9" stroke="black"/>
    </g>

  </g>

</svg>
