<svg width="400" height="400" viewBox="0 0 400 400" fill="none" xmlns="http://www.w3.org/2000/svg">

  <!-- GROUP: WATER TANK -->
  <g id="water_tank">

    <!-- BODY -->
    <g id="tank_body">
      <rect x="44" y="87" width="315" height="205" fill="#D9D9D9"/>
      <rect x="64" y="114" width="273" height="160" fill="#898686"/>
    </g>

    <!-- WATER (FULL) -->
    <g id="tank_water">
      <rect x="64" y="114" width="273" height="160" fill="#4CA3FF"/>
    </g>

    <!-- PIPE -->
    <g id="tank_pipe">
      <rect x="176" y="292" width="38" height="18" fill="#D9D9D9"/>
      <path d="M195 302.5C200.197 302.5 204.878 303.388 208.241 304.804C209.924 305.512 211.253 306.343 212.154 307.24C213.054 308.135 213.5 309.068 213.5 310C213.5 310.932 213.054 311.865 212.154 312.76C211.253 313.657 209.924 314.488 208.241 315.196C204.878 316.612 200.197 317.5 195 317.5C189.803 317.5 185.122 316.612 181.759 315.196C180.076 314.488 178.747 313.657 177.846 312.76C176.946 311.865 176.5 310.932 176.5 310C176.5 309.068 176.946 308.135 177.846 307.24C178.747 306.343 180.076 305.512 181.759 304.804C185.122 303.388 189.803 302.5 195 302.5Z"
        fill="#D9D9D9"/>
    </g>

  </g>

</svg>
